<svg width="239" height="222" viewBox="0 0 239 222" fill="none" xmlns="http://www.w3.org/2000/svg">
<path d="M1.03662 115.345C1.03662 95.933 20.8701 84.9283 30.832 69.3104C50.7322 38.1158 73.4715 9.98877 115.654 9.98877C159.043 9.98877 176.451 37.7029 195.912 70.384C204.843 85.3822 230.27 97.0425 230.27 115.345C230.27 173.531 178.955 220.701 115.654 220.701C52.352 220.701 1.03662 173.531 1.03662 115.345Z" stroke="black" stroke-width="2" stroke-miterlimit="10" stroke-linecap="round" stroke-linejoin="round"/>
<path d="M25.1168 74.2944L3.72144 8.10986H18.7534L68.9489 23.6783L46.9379 46.4943L25.1168 74.2944Z" stroke="black" stroke-width="2" stroke-miterlimit="10" stroke-linecap="round" stroke-linejoin="round"/>
<path d="M237.009 1.27057L216.275 88.6558L200.208 74.947L168.015 28.4589L220.608 4.62034L237.009 1.27057Z" stroke="black" stroke-width="2" stroke-miterlimit="10" stroke-linecap="round" stroke-linejoin="round"/>
<path d="M29.681 56.6894L19.3215 22.3227L51.735 30.5795L40.6606 42.349L29.681 56.6894Z" fill="#D7778E" stroke="black" stroke-width="2" stroke-miterlimit="10" stroke-linecap="round" stroke-linejoin="round"/>
<path d="M220.339 19.9205L207.991 69.5787L200.476 58.0366L183.565 33.8785L220.339 19.9205Z" fill="#D7778E" stroke="black" stroke-width="2" stroke-miterlimit="10" stroke-linecap="round" stroke-linejoin="round"/>
</svg>
